SplineFontDB: 3.0
FontName: Untitled1
FullName: Untitled1
FamilyName: Untitled1
Weight: Regular
Copyright: Copyright (c) 2018, jentl
UComments: "2018-12-21: Created with FontForge (http://fontforge.org)"
Version: 001.000
ItalicAngle: 0
UnderlinePosition: -100
UnderlineWidth: 50
Ascent: 800
Descent: 200
InvalidEm: 0
LayerCount: 2
Layer: 0 0 "+tLe6dAAA" 1
Layer: 1 0 "+xV66dAAA" 0
XUID: [1021 610 1068502746 6458]
StyleMap: 0x0000
FSType: 0
OS2Version: 0
OS2_WeightWidthSlopeOnly: 0
OS2_UseTypoMetrics: 1
CreationTime: 1545369787
ModificationTime: 1545373814
OS2TypoAscent: 0
OS2TypoAOffset: 1
OS2TypoDescent: 0
OS2TypoDOffset: 1
OS2TypoLinegap: 90
OS2WinAscent: 0
OS2WinAOffset: 1
OS2WinDescent: 0
OS2WinDOffset: 1
HheadAscent: 0
HheadAOffset: 1
HheadDescent: 0
HheadDOffset: 1
DEI: 91125
Encoding: UnicodeFull
UnicodeInterp: none
NameList: AGL For New Fonts
DisplaySize: -48
AntiAlias: 1
FitToEm: 0
WinInfo: 0 31 11
BeginChars: 1114112 52

StartChar: glyph3
Encoding: 103 103 0
Width: 0
VWidth: 0
Flags: HW
LayerCount: 2
Fore
SplineSet
-1212.14648438 630 m 0
 -1212.14648438 657.694335938 -1189.69433594 680.146484375 -1162 680.146484375 c 0
 -1134.3046875 680.146484375 -1111.85449219 657.694335938 -1111.85449219 630 c 0
 -1111.85449219 602.3046875 -1134.3046875 579.854492188 -1162 579.854492188 c 0
 -1189.69433594 579.854492188 -1212.14648438 602.3046875 -1212.14648438 630 c 0
EndSplineSet
Validated: 524289
EndChar

StartChar: glyph4
Encoding: 108 108 1
Width: 0
VWidth: 0
Flags: HW
LayerCount: 2
Fore
SplineSet
-1212.14648438 298 m 0
 -1212.14648438 325.694335938 -1189.69433594 348.146484375 -1162 348.146484375 c 0
 -1134.3046875 348.146484375 -1111.85449219 325.694335938 -1111.85449219 298 c 0
 -1111.85449219 270.3046875 -1134.3046875 247.854492188 -1162 247.854492188 c 0
 -1189.69433594 247.854492188 -1212.14648438 270.3046875 -1212.14648438 298 c 0
EndSplineSet
Validated: 524289
EndChar

StartChar: glyph5
Encoding: 121 121 2
Width: 0
VWidth: 0
Flags: HW
LayerCount: 2
Fore
SplineSet
-216.146484375 -366 m 0
 -216.146484375 -338.305664062 -193.694335938 -315.853515625 -166 -315.853515625 c 0
 -138.3046875 -315.853515625 -115.854492188 -338.305664062 -115.854492188 -366 c 0
 -115.854492188 -393.6953125 -138.3046875 -416.145507812 -166 -416.145507812 c 0
 -193.694335938 -416.145507812 -216.146484375 -393.6953125 -216.146484375 -366 c 0
EndSplineSet
Validated: 524289
EndChar

StartChar: glyph6
Encoding: 112 112 3
Width: 0
VWidth: 0
Flags: HW
LayerCount: 2
Fore
SplineSet
115.853515625 298 m 0
 115.853515625 325.694335938 138.305664062 348.146484375 166 348.146484375 c 0
 193.6953125 348.146484375 216.145507812 325.694335938 216.145507812 298 c 0
 216.145507812 270.3046875 193.6953125 247.854492188 166 247.854492188 c 0
 138.305664062 247.854492188 115.853515625 270.3046875 115.853515625 298 c 0
EndSplineSet
Validated: 524289
EndChar

StartChar: glyph7
Encoding: 104 104 4
Width: 0
VWidth: 0
Flags: HW
LayerCount: 2
Fore
SplineSet
-880.146484375 630 m 0
 -880.146484375 657.694335938 -857.694335938 680.146484375 -830 680.146484375 c 0
 -802.3046875 680.146484375 -779.854492188 657.694335938 -779.854492188 630 c 0
 -779.854492188 602.3046875 -802.3046875 579.854492188 -830 579.854492188 c 0
 -857.694335938 579.854492188 -880.146484375 602.3046875 -880.146484375 630 c 0
EndSplineSet
Validated: 524289
EndChar

StartChar: glyph8
Encoding: 105 105 5
Width: 0
VWidth: 0
Flags: HW
LayerCount: 2
Fore
SplineSet
-548.146484375 630 m 0
 -548.146484375 657.694335938 -525.694335938 680.146484375 -498 680.146484375 c 0
 -470.3046875 680.146484375 -447.854492188 657.694335938 -447.854492188 630 c 0
 -447.854492188 602.3046875 -470.3046875 579.854492188 -498 579.854492188 c 0
 -525.694335938 579.854492188 -548.146484375 602.3046875 -548.146484375 630 c 0
EndSplineSet
Validated: 524289
EndChar

StartChar: uF298A
Encoding: 993674 993674 6
Width: 0
VWidth: 0
Flags: HW
LayerCount: 2
Fore
SplineSet
-1212.14648438 298 m 0
 -1212.14648438 325.694335938 -1189.69433594 348.146484375 -1162 348.146484375 c 0
 -1134.3046875 348.146484375 -1111.85449219 325.694335938 -1111.85449219 298 c 0
 -1111.85449219 270.3046875 -1134.3046875 247.854492188 -1162 247.854492188 c 0
 -1189.69433594 247.854492188 -1212.14648438 270.3046875 -1212.14648438 298 c 0
-1212.14648438 630 m 0
 -1212.14648438 657.694335938 -1189.69433594 680.146484375 -1162 680.146484375 c 0
 -1134.3046875 680.146484375 -1111.85449219 657.694335938 -1111.85449219 630 c 0
 -1111.85449219 602.3046875 -1134.3046875 579.854492188 -1162 579.854492188 c 0
 -1189.69433594 579.854492188 -1212.14648438 602.3046875 -1212.14648438 630 c 0
-1212.14648438 -366 m 0
 -1212.14648438 -338.305664062 -1189.69433594 -315.853515625 -1162 -315.853515625 c 0
 -1134.3046875 -315.853515625 -1111.85449219 -338.305664062 -1111.85449219 -366 c 0
 -1111.85449219 -393.6953125 -1134.3046875 -416.145507812 -1162 -416.145507812 c 0
 -1189.69433594 -416.145507812 -1212.14648438 -393.6953125 -1212.14648438 -366 c 0
-1212.14648438 -34 m 0
 -1212.14648438 -6.3056640625 -1189.69433594 16.146484375 -1162 16.146484375 c 0
 -1134.3046875 16.146484375 -1111.85449219 -6.3056640625 -1111.85449219 -34 c 0
 -1111.85449219 -61.6953125 -1134.3046875 -84.1455078125 -1162 -84.1455078125 c 0
 -1189.69433594 -84.1455078125 -1212.14648438 -61.6953125 -1212.14648438 -34 c 0
-880.146484375 -366 m 0
 -880.146484375 -338.305664062 -857.694335938 -315.853515625 -830 -315.853515625 c 0
 -802.3046875 -315.853515625 -779.854492188 -338.305664062 -779.854492188 -366 c 0
 -779.854492188 -393.6953125 -802.3046875 -416.145507812 -830 -416.145507812 c 0
 -857.694335938 -416.145507812 -880.146484375 -393.6953125 -880.146484375 -366 c 0
-880.146484375 -34 m 0
 -880.146484375 -6.3056640625 -857.694335938 16.146484375 -830 16.146484375 c 0
 -802.3046875 16.146484375 -779.854492188 -6.3056640625 -779.854492188 -34 c 0
 -779.854492188 -61.6953125 -802.3046875 -84.1455078125 -830 -84.1455078125 c 0
 -857.694335938 -84.1455078125 -880.146484375 -61.6953125 -880.146484375 -34 c 0
-548.146484375 -366 m 0
 -548.146484375 -338.305664062 -525.694335938 -315.853515625 -498 -315.853515625 c 0
 -470.3046875 -315.853515625 -447.854492188 -338.305664062 -447.854492188 -366 c 0
 -447.854492188 -393.6953125 -470.3046875 -416.145507812 -498 -416.145507812 c 0
 -525.694335938 -416.145507812 -548.146484375 -393.6953125 -548.146484375 -366 c 0
-548.146484375 -34 m 0
 -548.146484375 -6.3056640625 -525.694335938 16.146484375 -498 16.146484375 c 0
 -470.3046875 16.146484375 -447.854492188 -6.3056640625 -447.854492188 -34 c 0
 -447.854492188 -61.6953125 -470.3046875 -84.1455078125 -498 -84.1455078125 c 0
 -525.694335938 -84.1455078125 -548.146484375 -61.6953125 -548.146484375 -34 c 0
-1212.14648438 962 m 0
 -1212.14648438 989.694335938 -1189.69433594 1012.14648438 -1162 1012.14648438 c 0
 -1134.3046875 1012.14648438 -1111.85449219 989.694335938 -1111.85449219 962 c 0
 -1111.85449219 934.3046875 -1134.3046875 911.854492188 -1162 911.854492188 c 0
 -1189.69433594 911.854492188 -1212.14648438 934.3046875 -1212.14648438 962 c 0
-880.146484375 298 m 0
 -880.146484375 325.694335938 -857.694335938 348.146484375 -830 348.146484375 c 0
 -802.3046875 348.146484375 -779.854492188 325.694335938 -779.854492188 298 c 0
 -779.854492188 270.3046875 -802.3046875 247.854492188 -830 247.854492188 c 0
 -857.694335938 247.854492188 -880.146484375 270.3046875 -880.146484375 298 c 0
-880.146484375 630 m 0
 -880.146484375 657.694335938 -857.694335938 680.146484375 -830 680.146484375 c 0
 -802.3046875 680.146484375 -779.854492188 657.694335938 -779.854492188 630 c 0
 -779.854492188 602.3046875 -802.3046875 579.854492188 -830 579.854492188 c 0
 -857.694335938 579.854492188 -880.146484375 602.3046875 -880.146484375 630 c 0
-880.146484375 962 m 0
 -880.146484375 989.694335938 -857.694335938 1012.14648438 -830 1012.14648438 c 0
 -802.3046875 1012.14648438 -779.854492188 989.694335938 -779.854492188 962 c 0
 -779.854492188 934.3046875 -802.3046875 911.854492188 -830 911.854492188 c 0
 -857.694335938 911.854492188 -880.146484375 934.3046875 -880.146484375 962 c 0
-548.146484375 298 m 0
 -548.146484375 325.694335938 -525.694335938 348.146484375 -498 348.146484375 c 0
 -470.3046875 348.146484375 -447.854492188 325.694335938 -447.854492188 298 c 0
 -447.854492188 270.3046875 -470.3046875 247.854492188 -498 247.854492188 c 0
 -525.694335938 247.854492188 -548.146484375 270.3046875 -548.146484375 298 c 0
-548.146484375 630 m 0
 -548.146484375 657.694335938 -525.694335938 680.146484375 -498 680.146484375 c 0
 -470.3046875 680.146484375 -447.854492188 657.694335938 -447.854492188 630 c 0
 -447.854492188 602.3046875 -470.3046875 579.854492188 -498 579.854492188 c 0
 -525.694335938 579.854492188 -548.146484375 602.3046875 -548.146484375 630 c 0
-548.146484375 962 m 0
 -548.146484375 989.694335938 -525.694335938 1012.14648438 -498 1012.14648438 c 0
 -470.3046875 1012.14648438 -447.854492188 989.694335938 -447.854492188 962 c 0
 -447.854492188 934.3046875 -470.3046875 911.854492188 -498 911.854492188 c 0
 -525.694335938 911.854492188 -548.146484375 934.3046875 -548.146484375 962 c 0
-216.146484375 -366 m 0
 -216.146484375 -338.305664062 -193.694335938 -315.853515625 -166 -315.853515625 c 0
 -138.3046875 -315.853515625 -115.854492188 -338.305664062 -115.854492188 -366 c 0
 -115.854492188 -393.6953125 -138.3046875 -416.145507812 -166 -416.145507812 c 0
 -193.694335938 -416.145507812 -216.146484375 -393.6953125 -216.146484375 -366 c 0
-216.146484375 -34 m 0
 -216.146484375 -6.3056640625 -193.694335938 16.146484375 -166 16.146484375 c 0
 -138.3046875 16.146484375 -115.854492188 -6.3056640625 -115.854492188 -34 c 0
 -115.854492188 -61.6953125 -138.3046875 -84.1455078125 -166 -84.1455078125 c 0
 -193.694335938 -84.1455078125 -216.146484375 -61.6953125 -216.146484375 -34 c 0
-216.146484375 298 m 0
 -216.146484375 325.694335938 -193.694335938 348.146484375 -166 348.146484375 c 0
 -138.3046875 348.146484375 -115.854492188 325.694335938 -115.854492188 298 c 0
 -115.854492188 270.3046875 -138.3046875 247.854492188 -166 247.854492188 c 0
 -193.694335938 247.854492188 -216.146484375 270.3046875 -216.146484375 298 c 0
-216.146484375 630 m 0
 -216.146484375 657.694335938 -193.694335938 680.146484375 -166 680.146484375 c 0
 -138.3046875 680.146484375 -115.854492188 657.694335938 -115.854492188 630 c 0
 -115.854492188 602.3046875 -138.3046875 579.854492188 -166 579.854492188 c 0
 -193.694335938 579.854492188 -216.146484375 602.3046875 -216.146484375 630 c 0
115.853515625 -34 m 0
 115.853515625 -6.3056640625 138.305664062 16.146484375 166 16.146484375 c 0
 193.6953125 16.146484375 216.145507812 -6.3056640625 216.145507812 -34 c 0
 216.145507812 -61.6953125 193.6953125 -84.1455078125 166 -84.1455078125 c 0
 138.305664062 -84.1455078125 115.853515625 -61.6953125 115.853515625 -34 c 0
115.853515625 298 m 0
 115.853515625 325.694335938 138.305664062 348.146484375 166 348.146484375 c 0
 193.6953125 348.146484375 216.145507812 325.694335938 216.145507812 298 c 0
 216.145507812 270.3046875 193.6953125 247.854492188 166 247.854492188 c 0
 138.305664062 247.854492188 115.853515625 270.3046875 115.853515625 298 c 0
115.853515625 630 m 0
 115.853515625 657.694335938 138.305664062 680.146484375 166 680.146484375 c 0
 193.6953125 680.146484375 216.145507812 657.694335938 216.145507812 630 c 0
 216.145507812 602.3046875 193.6953125 579.854492188 166 579.854492188 c 0
 138.305664062 579.854492188 115.853515625 602.3046875 115.853515625 630 c 0
-216.146484375 962 m 0
 -216.146484375 989.694335938 -193.694335938 1012.14648438 -166 1012.14648438 c 0
 -138.3046875 1012.14648438 -115.854492188 989.694335938 -115.854492188 962 c 0
 -115.854492188 934.3046875 -138.3046875 911.854492188 -166 911.854492188 c 0
 -193.694335938 911.854492188 -216.146484375 934.3046875 -216.146484375 962 c 0
115.853515625 962 m 0
 115.853515625 989.694335938 138.305664062 1012.14648438 166 1012.14648438 c 0
 193.6953125 1012.14648438 216.145507812 989.694335938 216.145507812 962 c 0
 216.145507812 934.3046875 193.6953125 911.854492188 166 911.854492188 c 0
 138.305664062 911.854492188 115.853515625 934.3046875 115.853515625 962 c 0
115.853515625 -366 m 0
 115.853515625 -338.305664062 138.305664062 -315.853515625 166 -315.853515625 c 0
 193.6953125 -315.853515625 216.145507812 -338.305664062 216.145507812 -366 c 0
 216.145507812 -393.6953125 193.6953125 -416.145507812 166 -416.145507812 c 0
 138.305664062 -416.145507812 115.853515625 -393.6953125 115.853515625 -366 c 0
EndSplineSet
Validated: 524289
EndChar

StartChar: uF298B
Encoding: 993675 993675 7
Width: 0
VWidth: 0
Flags: HW
LayerCount: 2
Fore
SplineSet
-1212.14648438 962 m 0
 -1212.14648438 989.694335938 -1189.69433594 1012.14648438 -1162 1012.14648438 c 0
 -1134.3046875 1012.14648438 -1111.85449219 989.694335938 -1111.85449219 962 c 0
 -1111.85449219 934.3046875 -1134.3046875 911.854492188 -1162 911.854492188 c 0
 -1189.69433594 911.854492188 -1212.14648438 934.3046875 -1212.14648438 962 c 0
EndSplineSet
Validated: 524289
EndChar

StartChar: uF298C
Encoding: 993676 993676 8
Width: 0
VWidth: 0
Flags: HW
LayerCount: 2
Fore
SplineSet
-880.146484375 962 m 0
 -880.146484375 989.694335938 -857.694335938 1012.14648438 -830 1012.14648438 c 0
 -802.3046875 1012.14648438 -779.854492188 989.694335938 -779.854492188 962 c 0
 -779.854492188 934.3046875 -802.3046875 911.854492188 -830 911.854492188 c 0
 -857.694335938 911.854492188 -880.146484375 934.3046875 -880.146484375 962 c 0
EndSplineSet
Validated: 524289
EndChar

StartChar: uF298D
Encoding: 993677 993677 9
Width: 0
VWidth: 0
Flags: HW
LayerCount: 2
Fore
SplineSet
-548.146484375 962 m 0
 -548.146484375 989.694335938 -525.694335938 1012.14648438 -498 1012.14648438 c 0
 -470.3046875 1012.14648438 -447.854492188 989.694335938 -447.854492188 962 c 0
 -447.854492188 934.3046875 -470.3046875 911.854492188 -498 911.854492188 c 0
 -525.694335938 911.854492188 -548.146484375 934.3046875 -548.146484375 962 c 0
EndSplineSet
Validated: 524289
EndChar

StartChar: uF298E
Encoding: 993678 993678 10
Width: 0
VWidth: 0
Flags: HW
LayerCount: 2
Fore
SplineSet
-216.146484375 962 m 0
 -216.146484375 989.694335938 -193.694335938 1012.14648438 -166 1012.14648438 c 0
 -138.3046875 1012.14648438 -115.854492188 989.694335938 -115.854492188 962 c 0
 -115.854492188 934.3046875 -138.3046875 911.854492188 -166 911.854492188 c 0
 -193.694335938 911.854492188 -216.146484375 934.3046875 -216.146484375 962 c 0
EndSplineSet
Validated: 524289
EndChar

StartChar: uF298F
Encoding: 993679 993679 11
Width: 0
VWidth: 0
Flags: HW
LayerCount: 2
Fore
SplineSet
115.853515625 962 m 0
 115.853515625 989.694335938 138.305664062 1012.14648438 166 1012.14648438 c 0
 193.6953125 1012.14648438 216.145507812 989.694335938 216.145507812 962 c 0
 216.145507812 934.3046875 193.6953125 911.854492188 166 911.854492188 c 0
 138.305664062 911.854492188 115.853515625 934.3046875 115.853515625 962 c 0
EndSplineSet
Validated: 524289
EndChar

StartChar: uF2990
Encoding: 993680 993680 12
Width: 0
VWidth: 0
Flags: HW
LayerCount: 2
Fore
SplineSet
-1212.14648438 630 m 0
 -1212.14648438 657.694335938 -1189.69433594 680.146484375 -1162 680.146484375 c 0
 -1134.3046875 680.146484375 -1111.85449219 657.694335938 -1111.85449219 630 c 0
 -1111.85449219 602.3046875 -1134.3046875 579.854492188 -1162 579.854492188 c 0
 -1189.69433594 579.854492188 -1212.14648438 602.3046875 -1212.14648438 630 c 0
EndSplineSet
Validated: 524289
EndChar

StartChar: uF2991
Encoding: 993681 993681 13
Width: 0
VWidth: 0
Flags: HW
LayerCount: 2
Fore
SplineSet
-880.146484375 630 m 0
 -880.146484375 657.694335938 -857.694335938 680.146484375 -830 680.146484375 c 0
 -802.3046875 680.146484375 -779.854492188 657.694335938 -779.854492188 630 c 0
 -779.854492188 602.3046875 -802.3046875 579.854492188 -830 579.854492188 c 0
 -857.694335938 579.854492188 -880.146484375 602.3046875 -880.146484375 630 c 0
EndSplineSet
Validated: 524289
EndChar

StartChar: uF2992
Encoding: 993682 993682 14
Width: 0
VWidth: 0
Flags: HW
LayerCount: 2
Fore
SplineSet
-548.146484375 630 m 0
 -548.146484375 657.694335938 -525.694335938 680.146484375 -498 680.146484375 c 0
 -470.3046875 680.146484375 -447.854492188 657.694335938 -447.854492188 630 c 0
 -447.854492188 602.3046875 -470.3046875 579.854492188 -498 579.854492188 c 0
 -525.694335938 579.854492188 -548.146484375 602.3046875 -548.146484375 630 c 0
EndSplineSet
Validated: 524289
EndChar

StartChar: uF2993
Encoding: 993683 993683 15
Width: 0
VWidth: 0
Flags: HW
LayerCount: 2
Fore
SplineSet
-216.146484375 630 m 0
 -216.146484375 657.694335938 -193.694335938 680.146484375 -166 680.146484375 c 0
 -138.3046875 680.146484375 -115.854492188 657.694335938 -115.854492188 630 c 0
 -115.854492188 602.3046875 -138.3046875 579.854492188 -166 579.854492188 c 0
 -193.694335938 579.854492188 -216.146484375 602.3046875 -216.146484375 630 c 0
EndSplineSet
Validated: 524289
EndChar

StartChar: uF2994
Encoding: 993684 993684 16
Width: 0
VWidth: 0
Flags: HW
LayerCount: 2
Fore
SplineSet
115.853515625 630 m 0
 115.853515625 657.694335938 138.305664062 680.146484375 166 680.146484375 c 0
 193.6953125 680.146484375 216.145507812 657.694335938 216.145507812 630 c 0
 216.145507812 602.3046875 193.6953125 579.854492188 166 579.854492188 c 0
 138.305664062 579.854492188 115.853515625 602.3046875 115.853515625 630 c 0
EndSplineSet
Validated: 524289
EndChar

StartChar: uF2995
Encoding: 993685 993685 17
Width: 0
VWidth: 0
Flags: HW
LayerCount: 2
Fore
SplineSet
-1212.14648438 298 m 0
 -1212.14648438 325.694335938 -1189.69433594 348.146484375 -1162 348.146484375 c 0
 -1134.3046875 348.146484375 -1111.85449219 325.694335938 -1111.85449219 298 c 0
 -1111.85449219 270.3046875 -1134.3046875 247.854492188 -1162 247.854492188 c 0
 -1189.69433594 247.854492188 -1212.14648438 270.3046875 -1212.14648438 298 c 0
EndSplineSet
Validated: 524289
EndChar

StartChar: uF2996
Encoding: 993686 993686 18
Width: 0
VWidth: 0
Flags: HW
LayerCount: 2
Fore
SplineSet
-880.146484375 298 m 0
 -880.146484375 325.694335938 -857.694335938 348.146484375 -830 348.146484375 c 0
 -802.3046875 348.146484375 -779.854492188 325.694335938 -779.854492188 298 c 0
 -779.854492188 270.3046875 -802.3046875 247.854492188 -830 247.854492188 c 0
 -857.694335938 247.854492188 -880.146484375 270.3046875 -880.146484375 298 c 0
EndSplineSet
Validated: 524289
EndChar

StartChar: uF2997
Encoding: 993687 993687 19
Width: 0
VWidth: 0
Flags: HW
LayerCount: 2
Fore
SplineSet
-548.146484375 298 m 0
 -548.146484375 325.694335938 -525.694335938 348.146484375 -498 348.146484375 c 0
 -470.3046875 348.146484375 -447.854492188 325.694335938 -447.854492188 298 c 0
 -447.854492188 270.3046875 -470.3046875 247.854492188 -498 247.854492188 c 0
 -525.694335938 247.854492188 -548.146484375 270.3046875 -548.146484375 298 c 0
EndSplineSet
Validated: 524289
EndChar

StartChar: uF2998
Encoding: 993688 993688 20
Width: 0
VWidth: 0
Flags: HW
LayerCount: 2
Fore
SplineSet
-216.146484375 298 m 0
 -216.146484375 325.694335938 -193.694335938 348.146484375 -166 348.146484375 c 0
 -138.3046875 348.146484375 -115.854492188 325.694335938 -115.854492188 298 c 0
 -115.854492188 270.3046875 -138.3046875 247.854492188 -166 247.854492188 c 0
 -193.694335938 247.854492188 -216.146484375 270.3046875 -216.146484375 298 c 0
EndSplineSet
Validated: 524289
EndChar

StartChar: uF2999
Encoding: 993689 993689 21
Width: 0
VWidth: 0
Flags: HW
LayerCount: 2
Fore
SplineSet
115.853515625 298 m 0
 115.853515625 325.694335938 138.305664062 348.146484375 166 348.146484375 c 0
 193.6953125 348.146484375 216.145507812 325.694335938 216.145507812 298 c 0
 216.145507812 270.3046875 193.6953125 247.854492188 166 247.854492188 c 0
 138.305664062 247.854492188 115.853515625 270.3046875 115.853515625 298 c 0
EndSplineSet
Validated: 524289
EndChar

StartChar: uF299A
Encoding: 993690 993690 22
Width: 0
VWidth: 0
Flags: HW
LayerCount: 2
Fore
SplineSet
-1212.14648438 -34 m 0
 -1212.14648438 -6.3056640625 -1189.69433594 16.146484375 -1162 16.146484375 c 0
 -1134.3046875 16.146484375 -1111.85449219 -6.3056640625 -1111.85449219 -34 c 0
 -1111.85449219 -61.6953125 -1134.3046875 -84.1455078125 -1162 -84.1455078125 c 0
 -1189.69433594 -84.1455078125 -1212.14648438 -61.6953125 -1212.14648438 -34 c 0
EndSplineSet
Validated: 524289
EndChar

StartChar: uF299B
Encoding: 993691 993691 23
Width: 0
VWidth: 0
Flags: HW
LayerCount: 2
Fore
SplineSet
-880.146484375 -34 m 0
 -880.146484375 -6.3056640625 -857.694335938 16.146484375 -830 16.146484375 c 0
 -802.3046875 16.146484375 -779.854492188 -6.3056640625 -779.854492188 -34 c 0
 -779.854492188 -61.6953125 -802.3046875 -84.1455078125 -830 -84.1455078125 c 0
 -857.694335938 -84.1455078125 -880.146484375 -61.6953125 -880.146484375 -34 c 0
EndSplineSet
Validated: 524289
EndChar

StartChar: uF299C
Encoding: 993692 993692 24
Width: 0
VWidth: 0
Flags: HW
LayerCount: 2
Fore
SplineSet
-548.146484375 -34 m 0
 -548.146484375 -6.3056640625 -525.694335938 16.146484375 -498 16.146484375 c 0
 -470.3046875 16.146484375 -447.854492188 -6.3056640625 -447.854492188 -34 c 0
 -447.854492188 -61.6953125 -470.3046875 -84.1455078125 -498 -84.1455078125 c 0
 -525.694335938 -84.1455078125 -548.146484375 -61.6953125 -548.146484375 -34 c 0
EndSplineSet
Validated: 524289
EndChar

StartChar: uF299D
Encoding: 993693 993693 25
Width: 0
VWidth: 0
Flags: HW
LayerCount: 2
Fore
SplineSet
-216.146484375 -34 m 0
 -216.146484375 -6.3056640625 -193.694335938 16.146484375 -166 16.146484375 c 0
 -138.3046875 16.146484375 -115.854492188 -6.3056640625 -115.854492188 -34 c 0
 -115.854492188 -61.6953125 -138.3046875 -84.1455078125 -166 -84.1455078125 c 0
 -193.694335938 -84.1455078125 -216.146484375 -61.6953125 -216.146484375 -34 c 0
EndSplineSet
Validated: 524289
EndChar

StartChar: uF299E
Encoding: 993694 993694 26
Width: 0
VWidth: 0
Flags: HW
LayerCount: 2
Fore
SplineSet
115.853515625 -34 m 0
 115.853515625 -6.3056640625 138.305664062 16.146484375 166 16.146484375 c 0
 193.6953125 16.146484375 216.145507812 -6.3056640625 216.145507812 -34 c 0
 216.145507812 -61.6953125 193.6953125 -84.1455078125 166 -84.1455078125 c 0
 138.305664062 -84.1455078125 115.853515625 -61.6953125 115.853515625 -34 c 0
EndSplineSet
Validated: 524289
EndChar

StartChar: uF299F
Encoding: 993695 993695 27
Width: 0
VWidth: 0
Flags: HW
LayerCount: 2
Fore
SplineSet
-1212.14648438 -366 m 0
 -1212.14648438 -338.305664062 -1189.69433594 -315.853515625 -1162 -315.853515625 c 0
 -1134.3046875 -315.853515625 -1111.85449219 -338.305664062 -1111.85449219 -366 c 0
 -1111.85449219 -393.6953125 -1134.3046875 -416.145507812 -1162 -416.145507812 c 0
 -1189.69433594 -416.145507812 -1212.14648438 -393.6953125 -1212.14648438 -366 c 0
EndSplineSet
Validated: 524289
EndChar

StartChar: uF29A0
Encoding: 993696 993696 28
Width: 0
VWidth: 0
Flags: HW
LayerCount: 2
Fore
SplineSet
-880.146484375 -366 m 0
 -880.146484375 -338.305664062 -857.694335938 -315.853515625 -830 -315.853515625 c 0
 -802.3046875 -315.853515625 -779.854492188 -338.305664062 -779.854492188 -366 c 0
 -779.854492188 -393.6953125 -802.3046875 -416.145507812 -830 -416.145507812 c 0
 -857.694335938 -416.145507812 -880.146484375 -393.6953125 -880.146484375 -366 c 0
EndSplineSet
Validated: 524289
EndChar

StartChar: uF29A1
Encoding: 993697 993697 29
Width: 0
VWidth: 0
Flags: HW
LayerCount: 2
Fore
SplineSet
-548.146484375 -366 m 0
 -548.146484375 -338.305664062 -525.694335938 -315.853515625 -498 -315.853515625 c 0
 -470.3046875 -315.853515625 -447.854492188 -338.305664062 -447.854492188 -366 c 0
 -447.854492188 -393.6953125 -470.3046875 -416.145507812 -498 -416.145507812 c 0
 -525.694335938 -416.145507812 -548.146484375 -393.6953125 -548.146484375 -366 c 0
EndSplineSet
Validated: 524289
EndChar

StartChar: uF29A2
Encoding: 993698 993698 30
Width: 0
VWidth: 0
Flags: HW
LayerCount: 2
Fore
SplineSet
-216.146484375 -366 m 0
 -216.146484375 -338.305664062 -193.694335938 -315.853515625 -166 -315.853515625 c 0
 -138.3046875 -315.853515625 -115.854492188 -338.305664062 -115.854492188 -366 c 0
 -115.854492188 -393.6953125 -138.3046875 -416.145507812 -166 -416.145507812 c 0
 -193.694335938 -416.145507812 -216.146484375 -393.6953125 -216.146484375 -366 c 0
EndSplineSet
Validated: 524289
EndChar

StartChar: uF29A3
Encoding: 993699 993699 31
Width: 0
VWidth: 0
Flags: HW
LayerCount: 2
Fore
SplineSet
115.853515625 -366 m 0
 115.853515625 -338.305664062 138.305664062 -315.853515625 166 -315.853515625 c 0
 193.6953125 -315.853515625 216.145507812 -338.305664062 216.145507812 -366 c 0
 216.145507812 -393.6953125 193.6953125 -416.145507812 166 -416.145507812 c 0
 138.305664062 -416.145507812 115.853515625 -393.6953125 115.853515625 -366 c 0
EndSplineSet
Validated: 524289
EndChar

StartChar: a
Encoding: 97 97 32
Width: 0
VWidth: 0
Flags: HW
LayerCount: 2
Fore
SplineSet
-1212.14648438 298 m 0
 -1212.14648438 325.694335938 -1189.69433594 348.146484375 -1162 348.146484375 c 0
 -1134.3046875 348.146484375 -1111.85449219 325.694335938 -1111.85449219 298 c 0
 -1111.85449219 270.3046875 -1134.3046875 247.854492188 -1162 247.854492188 c 0
 -1189.69433594 247.854492188 -1212.14648438 270.3046875 -1212.14648438 298 c 0
-1212.14648438 630 m 0
 -1212.14648438 657.694335938 -1189.69433594 680.146484375 -1162 680.146484375 c 0
 -1134.3046875 680.146484375 -1111.85449219 657.694335938 -1111.85449219 630 c 0
 -1111.85449219 602.3046875 -1134.3046875 579.854492188 -1162 579.854492188 c 0
 -1189.69433594 579.854492188 -1212.14648438 602.3046875 -1212.14648438 630 c 0
-1212.14648438 -366 m 0
 -1212.14648438 -338.305664062 -1189.69433594 -315.853515625 -1162 -315.853515625 c 0
 -1134.3046875 -315.853515625 -1111.85449219 -338.305664062 -1111.85449219 -366 c 0
 -1111.85449219 -393.6953125 -1134.3046875 -416.145507812 -1162 -416.145507812 c 0
 -1189.69433594 -416.145507812 -1212.14648438 -393.6953125 -1212.14648438 -366 c 0
-1212.14648438 -34 m 0
 -1212.14648438 -6.3056640625 -1189.69433594 16.146484375 -1162 16.146484375 c 0
 -1134.3046875 16.146484375 -1111.85449219 -6.3056640625 -1111.85449219 -34 c 0
 -1111.85449219 -61.6953125 -1134.3046875 -84.1455078125 -1162 -84.1455078125 c 0
 -1189.69433594 -84.1455078125 -1212.14648438 -61.6953125 -1212.14648438 -34 c 0
-880.146484375 -366 m 0
 -880.146484375 -338.305664062 -857.694335938 -315.853515625 -830 -315.853515625 c 0
 -802.3046875 -315.853515625 -779.854492188 -338.305664062 -779.854492188 -366 c 0
 -779.854492188 -393.6953125 -802.3046875 -416.145507812 -830 -416.145507812 c 0
 -857.694335938 -416.145507812 -880.146484375 -393.6953125 -880.146484375 -366 c 0
-880.146484375 -34 m 0
 -880.146484375 -6.3056640625 -857.694335938 16.146484375 -830 16.146484375 c 0
 -802.3046875 16.146484375 -779.854492188 -6.3056640625 -779.854492188 -34 c 0
 -779.854492188 -61.6953125 -802.3046875 -84.1455078125 -830 -84.1455078125 c 0
 -857.694335938 -84.1455078125 -880.146484375 -61.6953125 -880.146484375 -34 c 0
-548.146484375 -366 m 0
 -548.146484375 -338.305664062 -525.694335938 -315.853515625 -498 -315.853515625 c 0
 -470.3046875 -315.853515625 -447.854492188 -338.305664062 -447.854492188 -366 c 0
 -447.854492188 -393.6953125 -470.3046875 -416.145507812 -498 -416.145507812 c 0
 -525.694335938 -416.145507812 -548.146484375 -393.6953125 -548.146484375 -366 c 0
-548.146484375 -34 m 0
 -548.146484375 -6.3056640625 -525.694335938 16.146484375 -498 16.146484375 c 0
 -470.3046875 16.146484375 -447.854492188 -6.3056640625 -447.854492188 -34 c 0
 -447.854492188 -61.6953125 -470.3046875 -84.1455078125 -498 -84.1455078125 c 0
 -525.694335938 -84.1455078125 -548.146484375 -61.6953125 -548.146484375 -34 c 0
-1212.14648438 962 m 0
 -1212.14648438 989.694335938 -1189.69433594 1012.14648438 -1162 1012.14648438 c 0
 -1134.3046875 1012.14648438 -1111.85449219 989.694335938 -1111.85449219 962 c 0
 -1111.85449219 934.3046875 -1134.3046875 911.854492188 -1162 911.854492188 c 0
 -1189.69433594 911.854492188 -1212.14648438 934.3046875 -1212.14648438 962 c 0
-880.146484375 298 m 0
 -880.146484375 325.694335938 -857.694335938 348.146484375 -830 348.146484375 c 0
 -802.3046875 348.146484375 -779.854492188 325.694335938 -779.854492188 298 c 0
 -779.854492188 270.3046875 -802.3046875 247.854492188 -830 247.854492188 c 0
 -857.694335938 247.854492188 -880.146484375 270.3046875 -880.146484375 298 c 0
-880.146484375 630 m 0
 -880.146484375 657.694335938 -857.694335938 680.146484375 -830 680.146484375 c 0
 -802.3046875 680.146484375 -779.854492188 657.694335938 -779.854492188 630 c 0
 -779.854492188 602.3046875 -802.3046875 579.854492188 -830 579.854492188 c 0
 -857.694335938 579.854492188 -880.146484375 602.3046875 -880.146484375 630 c 0
-880.146484375 962 m 0
 -880.146484375 989.694335938 -857.694335938 1012.14648438 -830 1012.14648438 c 0
 -802.3046875 1012.14648438 -779.854492188 989.694335938 -779.854492188 962 c 0
 -779.854492188 934.3046875 -802.3046875 911.854492188 -830 911.854492188 c 0
 -857.694335938 911.854492188 -880.146484375 934.3046875 -880.146484375 962 c 0
-548.146484375 298 m 0
 -548.146484375 325.694335938 -525.694335938 348.146484375 -498 348.146484375 c 0
 -470.3046875 348.146484375 -447.854492188 325.694335938 -447.854492188 298 c 0
 -447.854492188 270.3046875 -470.3046875 247.854492188 -498 247.854492188 c 0
 -525.694335938 247.854492188 -548.146484375 270.3046875 -548.146484375 298 c 0
-548.146484375 630 m 0
 -548.146484375 657.694335938 -525.694335938 680.146484375 -498 680.146484375 c 0
 -470.3046875 680.146484375 -447.854492188 657.694335938 -447.854492188 630 c 0
 -447.854492188 602.3046875 -470.3046875 579.854492188 -498 579.854492188 c 0
 -525.694335938 579.854492188 -548.146484375 602.3046875 -548.146484375 630 c 0
-548.146484375 962 m 0
 -548.146484375 989.694335938 -525.694335938 1012.14648438 -498 1012.14648438 c 0
 -470.3046875 1012.14648438 -447.854492188 989.694335938 -447.854492188 962 c 0
 -447.854492188 934.3046875 -470.3046875 911.854492188 -498 911.854492188 c 0
 -525.694335938 911.854492188 -548.146484375 934.3046875 -548.146484375 962 c 0
-216.146484375 -366 m 0
 -216.146484375 -338.305664062 -193.694335938 -315.853515625 -166 -315.853515625 c 0
 -138.3046875 -315.853515625 -115.854492188 -338.305664062 -115.854492188 -366 c 0
 -115.854492188 -393.6953125 -138.3046875 -416.145507812 -166 -416.145507812 c 0
 -193.694335938 -416.145507812 -216.146484375 -393.6953125 -216.146484375 -366 c 0
-216.146484375 -34 m 0
 -216.146484375 -6.3056640625 -193.694335938 16.146484375 -166 16.146484375 c 0
 -138.3046875 16.146484375 -115.854492188 -6.3056640625 -115.854492188 -34 c 0
 -115.854492188 -61.6953125 -138.3046875 -84.1455078125 -166 -84.1455078125 c 0
 -193.694335938 -84.1455078125 -216.146484375 -61.6953125 -216.146484375 -34 c 0
-216.146484375 298 m 0
 -216.146484375 325.694335938 -193.694335938 348.146484375 -166 348.146484375 c 0
 -138.3046875 348.146484375 -115.854492188 325.694335938 -115.854492188 298 c 0
 -115.854492188 270.3046875 -138.3046875 247.854492188 -166 247.854492188 c 0
 -193.694335938 247.854492188 -216.146484375 270.3046875 -216.146484375 298 c 0
-216.146484375 630 m 0
 -216.146484375 657.694335938 -193.694335938 680.146484375 -166 680.146484375 c 0
 -138.3046875 680.146484375 -115.854492188 657.694335938 -115.854492188 630 c 0
 -115.854492188 602.3046875 -138.3046875 579.854492188 -166 579.854492188 c 0
 -193.694335938 579.854492188 -216.146484375 602.3046875 -216.146484375 630 c 0
115.853515625 -34 m 0
 115.853515625 -6.3056640625 138.305664062 16.146484375 166 16.146484375 c 0
 193.6953125 16.146484375 216.145507812 -6.3056640625 216.145507812 -34 c 0
 216.145507812 -61.6953125 193.6953125 -84.1455078125 166 -84.1455078125 c 0
 138.305664062 -84.1455078125 115.853515625 -61.6953125 115.853515625 -34 c 0
115.853515625 298 m 0
 115.853515625 325.694335938 138.305664062 348.146484375 166 348.146484375 c 0
 193.6953125 348.146484375 216.145507812 325.694335938 216.145507812 298 c 0
 216.145507812 270.3046875 193.6953125 247.854492188 166 247.854492188 c 0
 138.305664062 247.854492188 115.853515625 270.3046875 115.853515625 298 c 0
115.853515625 630 m 0
 115.853515625 657.694335938 138.305664062 680.146484375 166 680.146484375 c 0
 193.6953125 680.146484375 216.145507812 657.694335938 216.145507812 630 c 0
 216.145507812 602.3046875 193.6953125 579.854492188 166 579.854492188 c 0
 138.305664062 579.854492188 115.853515625 602.3046875 115.853515625 630 c 0
-216.146484375 962 m 0
 -216.146484375 989.694335938 -193.694335938 1012.14648438 -166 1012.14648438 c 0
 -138.3046875 1012.14648438 -115.854492188 989.694335938 -115.854492188 962 c 0
 -115.854492188 934.3046875 -138.3046875 911.854492188 -166 911.854492188 c 0
 -193.694335938 911.854492188 -216.146484375 934.3046875 -216.146484375 962 c 0
115.853515625 962 m 0
 115.853515625 989.694335938 138.305664062 1012.14648438 166 1012.14648438 c 0
 193.6953125 1012.14648438 216.145507812 989.694335938 216.145507812 962 c 0
 216.145507812 934.3046875 193.6953125 911.854492188 166 911.854492188 c 0
 138.305664062 911.854492188 115.853515625 934.3046875 115.853515625 962 c 0
115.853515625 -366 m 0
 115.853515625 -338.305664062 138.305664062 -315.853515625 166 -315.853515625 c 0
 193.6953125 -315.853515625 216.145507812 -338.305664062 216.145507812 -366 c 0
 216.145507812 -393.6953125 193.6953125 -416.145507812 166 -416.145507812 c 0
 138.305664062 -416.145507812 115.853515625 -393.6953125 115.853515625 -366 c 0
EndSplineSet
Validated: 524289
EndChar

StartChar: b
Encoding: 98 98 33
Width: 0
VWidth: 0
Flags: HW
LayerCount: 2
Fore
SplineSet
-1212.14648438 962 m 0
 -1212.14648438 989.694335938 -1189.69433594 1012.14648438 -1162 1012.14648438 c 0
 -1134.3046875 1012.14648438 -1111.85449219 989.694335938 -1111.85449219 962 c 0
 -1111.85449219 934.3046875 -1134.3046875 911.854492188 -1162 911.854492188 c 0
 -1189.69433594 911.854492188 -1212.14648438 934.3046875 -1212.14648438 962 c 0
EndSplineSet
Validated: 524289
EndChar

StartChar: c
Encoding: 99 99 34
Width: 0
VWidth: 0
Flags: HW
LayerCount: 2
Fore
SplineSet
-880.146484375 962 m 0
 -880.146484375 989.694335938 -857.694335938 1012.14648438 -830 1012.14648438 c 0
 -802.3046875 1012.14648438 -779.854492188 989.694335938 -779.854492188 962 c 0
 -779.854492188 934.3046875 -802.3046875 911.854492188 -830 911.854492188 c 0
 -857.694335938 911.854492188 -880.146484375 934.3046875 -880.146484375 962 c 0
EndSplineSet
Validated: 524289
EndChar

StartChar: d
Encoding: 100 100 35
Width: 0
VWidth: 0
Flags: HW
LayerCount: 2
Fore
SplineSet
-548.146484375 962 m 0
 -548.146484375 989.694335938 -525.694335938 1012.14648438 -498 1012.14648438 c 0
 -470.3046875 1012.14648438 -447.854492188 989.694335938 -447.854492188 962 c 0
 -447.854492188 934.3046875 -470.3046875 911.854492188 -498 911.854492188 c 0
 -525.694335938 911.854492188 -548.146484375 934.3046875 -548.146484375 962 c 0
EndSplineSet
Validated: 524289
EndChar

StartChar: e
Encoding: 101 101 36
Width: 0
VWidth: 0
Flags: HW
LayerCount: 2
Fore
SplineSet
-216.146484375 962 m 0
 -216.146484375 989.694335938 -193.694335938 1012.14648438 -166 1012.14648438 c 0
 -138.3046875 1012.14648438 -115.854492188 989.694335938 -115.854492188 962 c 0
 -115.854492188 934.3046875 -138.3046875 911.854492188 -166 911.854492188 c 0
 -193.694335938 911.854492188 -216.146484375 934.3046875 -216.146484375 962 c 0
EndSplineSet
Validated: 524289
EndChar

StartChar: f
Encoding: 102 102 37
Width: 0
VWidth: 0
Flags: HW
LayerCount: 2
Fore
SplineSet
115.853515625 962 m 0
 115.853515625 989.694335938 138.305664062 1012.14648438 166 1012.14648438 c 0
 193.6953125 1012.14648438 216.145507812 989.694335938 216.145507812 962 c 0
 216.145507812 934.3046875 193.6953125 911.854492188 166 911.854492188 c 0
 138.305664062 911.854492188 115.853515625 934.3046875 115.853515625 962 c 0
EndSplineSet
Validated: 524289
EndChar

StartChar: j
Encoding: 106 106 38
Width: 0
VWidth: 0
Flags: HW
LayerCount: 2
Fore
SplineSet
-216.146484375 630 m 0
 -216.146484375 657.694335938 -193.694335938 680.146484375 -166 680.146484375 c 0
 -138.3046875 680.146484375 -115.854492188 657.694335938 -115.854492188 630 c 0
 -115.854492188 602.3046875 -138.3046875 579.854492188 -166 579.854492188 c 0
 -193.694335938 579.854492188 -216.146484375 602.3046875 -216.146484375 630 c 0
EndSplineSet
Validated: 524289
EndChar

StartChar: k
Encoding: 107 107 39
Width: 0
VWidth: 0
Flags: HW
LayerCount: 2
Fore
SplineSet
115.853515625 630 m 0
 115.853515625 657.694335938 138.305664062 680.146484375 166 680.146484375 c 0
 193.6953125 680.146484375 216.145507812 657.694335938 216.145507812 630 c 0
 216.145507812 602.3046875 193.6953125 579.854492188 166 579.854492188 c 0
 138.305664062 579.854492188 115.853515625 602.3046875 115.853515625 630 c 0
EndSplineSet
Validated: 524289
EndChar

StartChar: m
Encoding: 109 109 40
Width: 0
VWidth: 0
Flags: HW
LayerCount: 2
Fore
SplineSet
-880.146484375 298 m 0
 -880.146484375 325.694335938 -857.694335938 348.146484375 -830 348.146484375 c 0
 -802.3046875 348.146484375 -779.854492188 325.694335938 -779.854492188 298 c 0
 -779.854492188 270.3046875 -802.3046875 247.854492188 -830 247.854492188 c 0
 -857.694335938 247.854492188 -880.146484375 270.3046875 -880.146484375 298 c 0
EndSplineSet
Validated: 524289
EndChar

StartChar: n
Encoding: 110 110 41
Width: 0
VWidth: 0
Flags: HW
LayerCount: 2
Fore
SplineSet
-548.146484375 298 m 0
 -548.146484375 325.694335938 -525.694335938 348.146484375 -498 348.146484375 c 0
 -470.3046875 348.146484375 -447.854492188 325.694335938 -447.854492188 298 c 0
 -447.854492188 270.3046875 -470.3046875 247.854492188 -498 247.854492188 c 0
 -525.694335938 247.854492188 -548.146484375 270.3046875 -548.146484375 298 c 0
EndSplineSet
Validated: 524289
EndChar

StartChar: o
Encoding: 111 111 42
Width: 0
VWidth: 0
Flags: HW
LayerCount: 2
Fore
SplineSet
-216.146484375 298 m 0
 -216.146484375 325.694335938 -193.694335938 348.146484375 -166 348.146484375 c 0
 -138.3046875 348.146484375 -115.854492188 325.694335938 -115.854492188 298 c 0
 -115.854492188 270.3046875 -138.3046875 247.854492188 -166 247.854492188 c 0
 -193.694335938 247.854492188 -216.146484375 270.3046875 -216.146484375 298 c 0
EndSplineSet
Validated: 524289
EndChar

StartChar: q
Encoding: 113 113 43
Width: 0
VWidth: 0
Flags: HW
LayerCount: 2
Fore
SplineSet
-1212.14648438 -34 m 0
 -1212.14648438 -6.3056640625 -1189.69433594 16.146484375 -1162 16.146484375 c 0
 -1134.3046875 16.146484375 -1111.85449219 -6.3056640625 -1111.85449219 -34 c 0
 -1111.85449219 -61.6953125 -1134.3046875 -84.1455078125 -1162 -84.1455078125 c 0
 -1189.69433594 -84.1455078125 -1212.14648438 -61.6953125 -1212.14648438 -34 c 0
EndSplineSet
Validated: 524289
EndChar

StartChar: r
Encoding: 114 114 44
Width: 0
VWidth: 0
Flags: HW
LayerCount: 2
Fore
SplineSet
-880.146484375 -34 m 0
 -880.146484375 -6.3056640625 -857.694335938 16.146484375 -830 16.146484375 c 0
 -802.3046875 16.146484375 -779.854492188 -6.3056640625 -779.854492188 -34 c 0
 -779.854492188 -61.6953125 -802.3046875 -84.1455078125 -830 -84.1455078125 c 0
 -857.694335938 -84.1455078125 -880.146484375 -61.6953125 -880.146484375 -34 c 0
EndSplineSet
Validated: 524289
EndChar

StartChar: s
Encoding: 115 115 45
Width: 0
VWidth: 0
Flags: HW
LayerCount: 2
Fore
SplineSet
-548.146484375 -34 m 0
 -548.146484375 -6.3056640625 -525.694335938 16.146484375 -498 16.146484375 c 0
 -470.3046875 16.146484375 -447.854492188 -6.3056640625 -447.854492188 -34 c 0
 -447.854492188 -61.6953125 -470.3046875 -84.1455078125 -498 -84.1455078125 c 0
 -525.694335938 -84.1455078125 -548.146484375 -61.6953125 -548.146484375 -34 c 0
EndSplineSet
Validated: 524289
EndChar

StartChar: t
Encoding: 116 116 46
Width: 0
VWidth: 0
Flags: HW
LayerCount: 2
Fore
SplineSet
-216.146484375 -34 m 0
 -216.146484375 -6.3056640625 -193.694335938 16.146484375 -166 16.146484375 c 0
 -138.3046875 16.146484375 -115.854492188 -6.3056640625 -115.854492188 -34 c 0
 -115.854492188 -61.6953125 -138.3046875 -84.1455078125 -166 -84.1455078125 c 0
 -193.694335938 -84.1455078125 -216.146484375 -61.6953125 -216.146484375 -34 c 0
EndSplineSet
Validated: 524289
EndChar

StartChar: u
Encoding: 117 117 47
Width: 0
VWidth: 0
Flags: HW
LayerCount: 2
Fore
SplineSet
115.853515625 -34 m 0
 115.853515625 -6.3056640625 138.305664062 16.146484375 166 16.146484375 c 0
 193.6953125 16.146484375 216.145507812 -6.3056640625 216.145507812 -34 c 0
 216.145507812 -61.6953125 193.6953125 -84.1455078125 166 -84.1455078125 c 0
 138.305664062 -84.1455078125 115.853515625 -61.6953125 115.853515625 -34 c 0
EndSplineSet
Validated: 524289
EndChar

StartChar: v
Encoding: 118 118 48
Width: 0
VWidth: 0
Flags: HW
LayerCount: 2
Fore
SplineSet
-1212.14648438 -366 m 0
 -1212.14648438 -338.305664062 -1189.69433594 -315.853515625 -1162 -315.853515625 c 0
 -1134.3046875 -315.853515625 -1111.85449219 -338.305664062 -1111.85449219 -366 c 0
 -1111.85449219 -393.6953125 -1134.3046875 -416.145507812 -1162 -416.145507812 c 0
 -1189.69433594 -416.145507812 -1212.14648438 -393.6953125 -1212.14648438 -366 c 0
EndSplineSet
Validated: 524289
EndChar

StartChar: w
Encoding: 119 119 49
Width: 0
VWidth: 0
Flags: HW
LayerCount: 2
Fore
SplineSet
-880.146484375 -366 m 0
 -880.146484375 -338.305664062 -857.694335938 -315.853515625 -830 -315.853515625 c 0
 -802.3046875 -315.853515625 -779.854492188 -338.305664062 -779.854492188 -366 c 0
 -779.854492188 -393.6953125 -802.3046875 -416.145507812 -830 -416.145507812 c 0
 -857.694335938 -416.145507812 -880.146484375 -393.6953125 -880.146484375 -366 c 0
EndSplineSet
Validated: 524289
EndChar

StartChar: x
Encoding: 120 120 50
Width: 0
VWidth: 0
Flags: HW
LayerCount: 2
Fore
SplineSet
-548.146484375 -366 m 0
 -548.146484375 -338.305664062 -525.694335938 -315.853515625 -498 -315.853515625 c 0
 -470.3046875 -315.853515625 -447.854492188 -338.305664062 -447.854492188 -366 c 0
 -447.854492188 -393.6953125 -470.3046875 -416.145507812 -498 -416.145507812 c 0
 -525.694335938 -416.145507812 -548.146484375 -393.6953125 -548.146484375 -366 c 0
EndSplineSet
Validated: 524289
EndChar

StartChar: z
Encoding: 122 122 51
Width: 0
VWidth: 0
Flags: HW
LayerCount: 2
Fore
SplineSet
115.853515625 -366 m 0
 115.853515625 -338.305664062 138.305664062 -315.853515625 166 -315.853515625 c 0
 193.6953125 -315.853515625 216.145507812 -338.305664062 216.145507812 -366 c 0
 216.145507812 -393.6953125 193.6953125 -416.145507812 166 -416.145507812 c 0
 138.305664062 -416.145507812 115.853515625 -393.6953125 115.853515625 -366 c 0
EndSplineSet
Validated: 524289
EndChar
